<?xml version="1.0" encoding="utf-8"?>
<svg xmlns="http://www.w3.org/2000/svg" xmlns:xlink="http://www.w3.org/1999/xlink"  x="0" y="0" width="14.8356px" height="8.1229px" viewBox = " 0 0 14.8356 8.1229"  style="enable-background:new 0 0 14.8356 8.1229; " preserveAspectRatio="xMinYMin meet"  xml:space="preserve" >
<g id="Default">
<path id="bf68e59e-0ccd-48f2-9391-27375e6c5274" d ="M 14.8356 6.8861  C 14.8363 7.2274 14.6956 7.5372 14.4742 7.7604  C 14.3635 7.872 14.2326 7.962 14.0774 8.0263  C 13.9998 8.0585 13.9161 8.0842 13.8482 8.0977  C 13.7803 8.1112 13.7282 8.1125 13.677 8.1136  C 12.9807 8.129 12.4509 8.1246 11.8991 8.1229  C 11.3473 8.1211 10.7735 8.1219 10.2026 8.1224  C 9.0608 8.1235 7.9303 8.1231 6.7985 8.123  C 4.5348 8.1226 2.2657 8.123 0 8.1229  C -0.0015 7.9163 0.0029 7.7115 -0 7.5045  C -0.0029 7.2975 -0.0133 7.0884 -0.001 6.8873  C 0.0124 6.67 0.0521 6.4622 0.1671 6.265  C 0.2246 6.1664 0.3009 6.0704 0.3866 5.9884  C 0.4294 5.9475 0.4745 5.9099 0.522 5.8779  C 0.5695 5.8459 0.6193 5.8194 0.669 5.7931  C 1.1295 5.549 1.5872 5.3161 2.0452 5.0816  C 2.5032 4.8472 2.9614 4.6113 3.4199 4.3755  C 4.3368 3.9039 5.2545 3.4328 6.1699 2.9624  C 7.0852 2.492 7.9982 2.0223 8.9226 1.5484  C 9.3848 1.3115 9.8499 1.0735 10.2945 0.8431  C 10.7391 0.6128 11.1632 0.39 11.7409 0.1101  C 11.7876 0.0875 11.8353 0.0645 11.9021 0.0453  C 11.9689 0.0262 12.0548 0.0109 12.1383 0.0041  C 12.3053 -0.0096 12.4626 0.0106 12.6119 0.0592  C 12.9104 0.1564 13.1765 0.3672 13.3316 0.6706  C 9.2993 2.7424 5.2669 4.8143 1.2345 6.8861  C 5.7682 6.8861 10.3019 6.8861 14.8356 6.8861 Z " fill-rule="evenodd" class="cls-804183767" >  </path>
<path id="240f7faf-c26c-4340-b9d9-6aca77c4ffd0" d ="M 6.3475 5.6496  C 9.1769 5.6496 12.0063 5.6496 14.8356 5.6496  C 14.8356 5.2859 14.8356 4.9221 14.8356 4.5584  C 14.0937 3.9591 13.1227 3.5773 12.1527 3.4988  C 11.6677 3.4595 11.183 3.4961 10.7396 3.5903  C 10.2963 3.6844 9.8943 3.8362 9.4879 4.0322  C 9.2306 4.1562 8.9715 4.298 8.7103 4.4356  C 8.4492 4.5732 8.1859 4.7067 7.923 4.8408  C 7.3972 5.1091 6.8728 5.3803 6.3475 5.6496 Z " fill-rule="evenodd" class="cls-1561601246" >  </path>
</g>
<defs>
<style> .cls-804183767{stroke:Black ; stroke-opacity:1; stroke-width:1; stroke-linecap:round; stroke-linejoin:round; fill:#00000A ; fill-opacity:1; } </style>
<style> .cls-1561601246{stroke:Black ; stroke-opacity:1; stroke-width:1; stroke-linecap:round; stroke-linejoin:round; fill:#4586FF ; fill-opacity:1; } </style>
</defs>
</svg>