<?xml version="1.0" encoding="utf-8"?>
<svg xmlns="http://www.w3.org/2000/svg" xmlns:xlink="http://www.w3.org/1999/xlink"  x="0" y="0" width="14.8357px" height="14.8373px" viewBox = " 0 0 14.8357 14.8373"  style="enable-background:new 0 0 14.8357 14.8373; " preserveAspectRatio="xMinYMin meet"  xml:space="preserve" >
<g id="Default">
<path id="28ff9675-8f73-4d79-84cc-c9c1273053da" d ="M 14.8356 13.6006  C 14.8356 14.2836 14.2819 14.8373 13.5989 14.8373  C 9.066 14.8373 4.533 14.8373 0 14.8373  C 0 14.4251 0 14.0128 0 13.6006  C 0 9.4786 0 5.3566 0 1.2346  C 0 0.5529 0.5527 0.0001 1.2345 0.0001  C 1.2345 4.5336 1.2345 9.0671 1.2345 13.6006  C 5.7682 13.6006 10.3019 13.6006 14.8356 13.6006 Z " fill-rule="evenodd" class="cls-804183767" >  </path>
<path id="c5039d68-fd5c-4d5c-bc5e-c2097289d6e4" d ="M 3.896 12.3641 L 4.9442 11.7593 L 4.9442 12.3641 L 3.896 12.3641 Z " fill-rule="evenodd" class="cls-804183767" >  </path>
<path id="4d375f4d-c9fa-4791-b93d-657bac7bf2ff" d ="M 6.1807 11.7593 L 6.1807 6.5134 L 4.9442 7.2272 L 4.9442 11.7593 L 6.1807 11.7593 Z " fill-rule="evenodd" class="cls-804183767" >  </path>
<path id="74f294ec-4117-4f57-b561-a94474eae65d" d ="M 11.1264 11.7592 L 11.1264 3.658 L 9.89 4.3718 L 9.89 11.7592 L 11.1264 11.7592 Z " fill-rule="evenodd" class="cls-804183767" >  </path>
<path id="9ab7341a-142b-46ea-8ee1-f39642e3c02d" d ="M 8.8417 12.3641 L 9.89 11.7592 L 9.89 12.3641 L 8.8417 12.3641 Z " fill-rule="evenodd" class="cls-804183767" >  </path>
<path id="d17e52d7-25a8-4487-95a4-193a44c4017d" d ="M 2.4714 8.6549 L 2.4714 12.3641 L 3.7078 12.3641 L 3.7078 7.9411 L 2.4714 8.6549 Z " fill-rule="evenodd" class="cls-1654201406" >  </path>
<path id="5ed52726-d84f-4aa4-890e-9f5719c36605" d ="M 5.9922 12.3641 L 4.9444 11.7592 L 7.4171 11.7592 L 7.4171 5.7995 L 8.6535 5.0857 L 8.6535 11.7593 L 8.6536 12.3641 L 5.9922 12.3641 Z " fill-rule="evenodd" class="cls-1654201406" >  </path>
<path id="ce4bb83f-2c21-431c-8454-4c1e445bbedf" d ="M 10.938 12.3641 L 9.89 11.7592 L 12.3629 11.7592 L 12.3628 2.9442 L 13.5992 2.2303 L 13.5993 11.7592 L 13.5993 12.3641 L 10.938 12.3641 Z " fill-rule="evenodd" class="cls-1654201406" >  </path>
<path id="9d574b1f-4864-46d5-951d-c013c950211b" d ="M 14.8357 2.9442  C 14.8357 1.9628 14.8357 0.9814 14.8357 -0  C 14.2175 0 13.5992 -0 12.981 -0  C 12.3629 0 11.7449 0.0002 11.1264 -0  C 10.5079 -0.0002 9.8889 -0.0007 9.2725 0.0005  C 8.9643 0.0011 8.6568 0.0021 8.3445 -0  C 8.0321 -0.0021 7.715 -0.0074 7.418 -0.0003  C 7.107 0.0071 6.8181 0.0281 6.5172 0.0826  C 6.2164 0.1371 5.9036 0.2251 5.5977 0.3464  C 4.986 0.589 4.402 0.9648 3.92 1.4486  C 3.4379 1.9324 3.0578 2.5242 2.8187 3.1252  C 2.5795 3.7263 2.4813 4.3367 2.4646 4.9637  C 2.4566 5.2631 2.4672 5.5663 2.4714 5.873  C 2.4756 6.1798 2.4734 6.4901 2.4722 6.7999  C 2.4699 7.4194 2.4721 8.0364 2.4714 8.6549  C 2.8835 8.417 3.2957 8.179 3.7078 7.9411  C 4.12 8.179 4.5321 8.417 4.9442 8.6549  C 4.9442 8.179 4.9442 7.7031 4.9442 7.2272  C 5.3564 6.9893 5.7685 6.7513 6.1807 6.5134  C 6.5928 6.7513 7.005 6.9893 7.4171 7.2272  C 7.4171 6.7513 7.4171 6.2754 7.4171 5.7995  C 7.8292 5.5616 8.2414 5.3236 8.6535 5.0857  C 9.0657 5.3236 9.4778 5.5616 9.89 5.7995  C 9.89 5.3236 9.89 4.8477 9.89 4.3718  C 10.3021 4.1339 10.7142 3.896 11.1264 3.658  C 11.5385 3.896 11.9507 4.1339 12.3628 4.3718  C 12.3628 3.896 12.3628 3.4201 12.3628 2.9442  C 12.775 2.7062 13.1871 2.4683 13.5992 2.2303  C 14.0114 2.4683 14.4235 2.7062 14.8357 2.9442 Z " fill-rule="evenodd" class="cls-1561601246" >  </path>
</g>
<defs>
<style> .cls-804183767{stroke:Black ; stroke-opacity:1; stroke-width:1; stroke-linecap:round; stroke-linejoin:round; fill:#00000A ; fill-opacity:1; } </style>
<style> .cls-1654201406{stroke:Black ; stroke-opacity:1; stroke-width:1; stroke-linecap:round; stroke-linejoin:round; fill:#FFC10A ; fill-opacity:1; } </style>
<style> .cls-1561601246{stroke:Black ; stroke-opacity:1; stroke-width:1; stroke-linecap:round; stroke-linejoin:round; fill:#4586FF ; fill-opacity:1; } </style>
</defs>
</svg>