<?xml version="1.0" encoding="utf-8"?>
<svg xmlns="http://www.w3.org/2000/svg" xmlns:xlink="http://www.w3.org/1999/xlink"  x="0" y="0" width="14.8357px" height="14.8373px" viewBox = " 0 0 14.8357 14.8373"  style="enable-background:new 0 0 14.8357 14.8373; " preserveAspectRatio="xMinYMin meet"  xml:space="preserve" >
<g id="Default">
<path id="0e8a45a2-3d49-4dc4-9e10-b1633a360113" d ="M 14.8356 13.6006  C 14.8356 14.2836 14.2819 14.8373 13.5989 14.8373  C 9.066 14.8373 4.533 14.8373 0 14.8373  C 0 14.4251 0 14.0128 0 13.6006  C 0 9.4786 0 5.3566 0 1.2346  C 0 0.5529 0.5527 0.0001 1.2345 0.0001  C 1.2345 4.5336 1.2345 9.0671 1.2345 13.6006  C 5.7682 13.6006 10.3019 13.6006 14.8356 13.6006 Z " fill-rule="evenodd" class="cls-804183767" >  </path>
<path id="13d75db5-72fa-4e98-9eb5-0dec0389e3ad" d ="M 2.4714 12.3641 L 3.7078 12.3641 L 3.7078 11.4413 L 2.4714 12.1552 L 2.4714 12.3641 Z " fill-rule="evenodd" class="cls-1654201406" >  </path>
<path id="0d544d88-195b-4660-b8bc-df9d372afbec" d ="M 4.9442 12.1552  C 4.9442 12.2248 4.9442 12.2945 4.9442 12.3641  C 8.2414 12.3641 11.5385 12.3641 14.8356 12.3641  C 14.8357 8.2427 14.8357 4.1214 14.8357 -0  C 14.2175 0 13.5992 -0 12.981 -0  C 12.3629 0 11.7449 0.0002 11.1264 -0  C 10.5079 -0.0002 9.8889 -0.0007 9.2725 0.0005  C 8.9643 0.0011 8.6568 0.0021 8.3445 -0  C 8.0321 -0.0021 7.715 -0.0074 7.418 -0.0003  C 7.107 0.0071 6.818 0.0282 6.5172 0.0826  C 6.2164 0.1369 5.9037 0.2246 5.5978 0.3461  C 4.986 0.589 4.4014 0.9672 3.92 1.4486  C 3.4386 1.93 3.0604 2.5146 2.8175 3.1264  C 2.6961 3.4322 2.6084 3.7449 2.554 4.0458  C 2.4995 4.3467 2.4782 4.6359 2.4709 4.9471  C 2.4641 5.2359 2.4693 5.5436 2.4714 5.8469  C 2.4735 6.1502 2.4725 6.4492 2.4719 6.7487  C 2.4707 7.3478 2.4712 7.9494 2.4714 8.5504  C 2.4716 9.1515 2.4714 9.7521 2.4714 10.3528  C 2.4714 10.9535 2.4714 11.5544 2.4714 12.1552  C 2.8835 11.9172 3.2957 11.6793 3.7078 11.4413  C 4.12 11.6793 4.5321 11.9172 4.9442 12.1552 Z " fill-rule="evenodd" class="cls-1561601246" >  </path>
</g>
<defs>
<style> .cls-804183767{stroke:Black ; stroke-opacity:1; stroke-width:1; stroke-linecap:round; stroke-linejoin:round; fill:#00000A ; fill-opacity:1; } </style>
<style> .cls-1654201406{stroke:Black ; stroke-opacity:1; stroke-width:1; stroke-linecap:round; stroke-linejoin:round; fill:#FFC10A ; fill-opacity:1; } </style>
<style> .cls-1561601246{stroke:Black ; stroke-opacity:1; stroke-width:1; stroke-linecap:round; stroke-linejoin:round; fill:#4586FF ; fill-opacity:1; } </style>
</defs>
</svg>