<?xml version="1.0" encoding="utf-8"?>
<svg xmlns="http://www.w3.org/2000/svg" xmlns:xlink="http://www.w3.org/1999/xlink"  x="0" y="0" width="14.8357px" height="14.8373px" viewBox = " 0 0 14.8357 14.8373"  style="enable-background:new 0 0 14.8357 14.8373; " preserveAspectRatio="xMinYMin meet"  xml:space="preserve" >
<g id="Default">
<path id="51e1ba97-e4a1-4cbe-bb85-5f9b2bc64337" d ="M 14.8356 13.6006  C 14.8356 14.2836 14.2819 14.8373 13.5989 14.8373  C 9.066 14.8373 4.533 14.8373 0 14.8373  C 0 14.4251 0 14.0128 0 13.6006  C 0 9.4786 0 5.3566 0 1.2346  C 0 0.5529 0.5527 0.0001 1.2345 0.0001  C 1.2345 4.5336 1.2345 9.0671 1.2345 13.6006  C 5.7682 13.6006 10.3019 13.6006 14.8356 13.6006 Z " fill-rule="evenodd" class="cls-804183767" >  </path>
<path id="15748fca-38b1-4ce7-addf-e91fed515c57" d ="M 4.9442 12.3641 L 6.1807 12.3641 L 6.1807 9.9228 L 4.9442 10.6366 L 4.9442 12.3641 Z " fill-rule="evenodd" class="cls-804183767" >  </path>
<path id="cfe70f69-9883-416e-b006-307e7da1dfc1" d ="M 2.4714 8.6549 L 2.4714 12.3641 L 3.7078 12.3641 L 3.7078 7.9411 L 2.4714 8.6549 Z " fill-rule="evenodd" class="cls-1654201406" >  </path>
<path id="1f065239-bf52-42ec-b4f5-08572059621e" d ="M 7.4171 10.6366  C 7.4171 11.2125 7.4171 11.7883 7.4171 12.3641  C 9.8899 12.3641 12.3628 12.3641 14.8356 12.3641  C 14.8357 8.2427 14.8357 4.1214 14.8357 -0  C 14.2175 0 13.5992 -0 12.981 -0  C 12.3629 0 11.7449 0.0002 11.1264 -0  C 10.5079 -0.0002 9.8889 -0.0007 9.2725 0.0005  C 8.9643 0.0011 8.6568 0.0021 8.3445 -0  C 8.0321 -0.0021 7.715 -0.0074 7.418 -0.0003  C 7.107 0.0071 6.8181 0.0281 6.5172 0.0826  C 6.2164 0.1371 5.9036 0.2251 5.5977 0.3464  C 4.986 0.589 4.402 0.9648 3.92 1.4486  C 3.4379 1.9324 3.0578 2.5242 2.8187 3.1252  C 2.5795 3.7263 2.4813 4.3367 2.4646 4.9637  C 2.4566 5.2631 2.4672 5.5663 2.4714 5.873  C 2.4756 6.1798 2.4734 6.4901 2.4722 6.7999  C 2.4699 7.4194 2.4721 8.0364 2.4714 8.6549  C 2.8835 8.417 3.2957 8.179 3.7078 7.9411  C 4.12 8.179 4.5321 8.417 4.9442 8.6549  C 4.9442 9.3155 4.9442 9.9761 4.9442 10.6366  C 5.3564 10.3987 5.7685 10.1608 6.1807 9.9228  C 6.5928 10.1608 7.005 10.3987 7.4171 10.6366 Z " fill-rule="evenodd" class="cls-1561601246" >  </path>
</g>
<defs>
<style> .cls-804183767{stroke:Black ; stroke-opacity:1; stroke-width:1; stroke-linecap:round; stroke-linejoin:round; fill:#00000A ; fill-opacity:1; } </style>
<style> .cls-1654201406{stroke:Black ; stroke-opacity:1; stroke-width:1; stroke-linecap:round; stroke-linejoin:round; fill:#FFC10A ; fill-opacity:1; } </style>
<style> .cls-1561601246{stroke:Black ; stroke-opacity:1; stroke-width:1; stroke-linecap:round; stroke-linejoin:round; fill:#4586FF ; fill-opacity:1; } </style>
</defs>
</svg>